<svg width="168" height="80" xmlns="http://www.w3.org/2000/svg" xmlns:xlink="http://www.w3.org/1999/xlink"><use xlink:href="#path0_fill" transform="translate(2.688 7.731)" fill="#00DD3B"/><defs><path id="path0_fill" fill-rule="evenodd" d="M9.33 43.344c2.503 0 4.713-.736 6.53-2.258 1.866-1.52 2.798-3.287 2.798-5.348 0-6.674-7.758-7.46-10.9-9.03-2.406-1.374-.835-3.876 1.571-3.876 1.62 0 2.554 1.03 2.8 1.816.245.834.834 1.275 1.767 1.275h3.142a1.319 1.319 0 0 0 1.326-1.324c0-1.522-.786-2.994-2.357-4.515-1.571-1.521-3.781-2.258-6.58-2.258-2.405 0-4.517.688-6.284 2.062C1.424 21.26.54 23.028.54 25.188c0 4.612 4.32 6.231 7.66 7.458 2.308.834 4.174 1.865 4.174 3.288 0 1.227-.934 2.355-2.947 2.355-1.67 0-2.75-.588-3.24-1.815-.344-.834-.933-1.276-1.866-1.276H1.326A1.32 1.32 0 0 0 0 36.523c0 1.472.786 2.993 2.406 4.514 1.62 1.522 3.928 2.307 6.923 2.307zM34.95 54.73l-.588-.392v8.686a1.32 1.32 0 0 1-1.326 1.325H29.55a1.321 1.321 0 0 1-1.326-1.325v-30.72a1.322 1.322 0 0 1 1.326-1.324h2.995a1.319 1.319 0 0 1 1.325 1.325v.392c1.425-1.423 3.241-2.11 5.55-2.11 2.405 0 4.467.785 6.186 2.404 1.718 1.57 2.553 3.534 2.553 5.938v8.637c0 2.454-.835 4.465-2.553 6.085-1.719 1.57-3.732 2.355-6.089 2.355-1.964 0-3.83-.687-4.566-1.276zM76.363 1.325v9.667c1.227-1.129 2.946-1.668 5.155-1.668 2.357 0 4.37.785 6.089 2.404 1.718 1.57 2.553 3.582 2.553 6.036V26.4c0 2.404-.835 4.367-2.553 5.986-1.719 1.57-3.781 2.356-6.187 2.356-2.308 0-4.124-.687-5.548-2.11v.392a1.32 1.32 0 0 1-1.326 1.325H71.55a1.318 1.318 0 0 1-1.326-1.325v-31.7A1.32 1.32 0 0 1 71.55 0h3.486a1.319 1.319 0 0 1 1.326 1.325zm52.166 17.773c.343.246.49.54.49.933 0 .245-.097.49-.245.736l-1.669 2.355c-.246.295-.541.442-.884.442-.295 0-.54-.098-.786-.245-2.602-1.718-6.187-.344-5.941 2.6v1.865h7.709c.638 0 1.227.54 1.227 1.178v2.748c0 .638-.589 1.178-1.227 1.178h-7.709v18.107a1.316 1.316 0 0 1-1.326 1.325h-3.388a1.317 1.317 0 0 1-1.326-1.325V32.888h-4.37c-.638 0-1.227-.54-1.227-1.178v-2.748c0-.638.589-1.178 1.227-1.178h4.37v-1.718c0-2.453.884-4.514 2.603-6.134 1.719-1.619 3.928-2.453 6.629-2.453 2.356 0 4.321.54 5.843 1.62zm27.641-11.895v4.435l3.861-1.325c.404-.058.634-.115.75-.115.403 0 .691.345.922.979l.692 1.958c0 .173.23.691.23.922 0 .46-.288.806-.807.98l-4.15 1.497 2.651 3.456c.116.23.173.46.173.691 0 .404-.23.749-.691 1.037l-1.902 1.44c-.173.23-.461.346-.749.346-.404 0-.692-.173-.98-.519l-2.594-3.398-2.594 3.456c-.172.288-.403.46-.806.46-.346 0-.634-.114-.922-.403l-2.075-1.44c-.346-.288-.519-.633-.519-.979 0-.23.057-.46.173-.691l2.536-3.456-4.092-1.382c-.519-.173-.75-.577-.75-1.095 0-.288.058-.576.173-.922l.634-1.958c.231-.634.577-.98 1.038-.98.057 0 .288.058.749.116l3.862 1.325V7.202c0-.633.634-1.152 1.383-1.152h2.42c.75 0 1.384.519 1.384 1.152z"/></defs></svg>