<svg xmlns="http://www.w3.org/2000/svg" width="500" height="238"><path fill="#00dd3b" fill-rule="evenodd" d="M35.766 151.948c7.452 0 14.028-2.19 19.435-6.715 5.554-4.526 8.33-9.781 8.33-15.913 0-19.854-23.09-22.19-32.442-26.862-7.16-4.088-2.484-11.533 4.677-11.533 4.822 0 7.599 3.066 8.33 5.402.73 2.481 2.483 3.795 5.26 3.795h9.353a3.927 3.927 0 0 0 3.945-3.941c0-4.526-2.338-8.906-7.014-13.431-4.677-4.526-11.253-6.716-19.582-6.716-7.16 0-13.445 2.044-18.705 6.132-5.115 4.087-7.746 9.343-7.746 15.766 0 13.723 12.86 18.541 22.797 22.19 6.869 2.483 12.422 5.548 12.422 9.782 0 3.65-2.777 7.008-8.768 7.008-4.969 0-8.184-1.752-9.645-5.402-1.023-2.482-2.777-3.796-5.553-3.796h-8.914A3.927 3.927 0 0 0 8 131.656c0 4.38 2.338 8.905 7.16 13.431 4.823 4.526 11.691 6.861 20.606 6.861zm76.254 33.879l-1.753-1.168v25.84a3.927 3.927 0 0 1-3.946 3.942H95.946A3.927 3.927 0 0 1 92 210.499v-91.39a3.927 3.927 0 0 1 3.946-3.941h8.914a3.927 3.927 0 0 1 3.945 3.942v1.168c4.238-4.234 9.645-6.278 16.514-6.278 7.16 0 13.298 2.336 18.413 7.153 5.114 4.672 7.599 10.512 7.599 17.665v25.694c0 7.3-2.485 13.285-7.6 18.103-5.114 4.672-11.106 7.007-18.12 7.007-5.845 0-11.399-2.043-13.59-3.795zM235.267 26.942v28.76c3.653-3.358 8.768-4.964 15.344-4.964 7.014 0 13.006 2.336 18.12 7.153 5.115 4.672 7.6 10.658 7.6 17.957v25.694c0 7.154-2.485 12.993-7.6 17.811-5.114 4.672-11.252 7.007-18.412 7.007-6.869 0-12.276-2.043-16.514-6.277v1.168a3.927 3.927 0 0 1-3.945 3.942h-8.914A3.927 3.927 0 0 1 217 121.25V26.94A3.927 3.927 0 0 1 220.946 23h10.375a3.927 3.927 0 0 1 3.946 3.942zm155.256 52.876c1.023.73 1.46 1.606 1.46 2.773 0 .73-.291 1.46-.73 2.19l-4.968 7.008c-.731.876-1.608 1.314-2.63 1.314-.878 0-1.608-.292-2.339-.73-7.745-5.11-18.413-1.022-17.682 7.737v5.548h22.943c1.9 0 3.653 1.606 3.653 3.504v8.175c0 1.898-1.753 3.504-3.653 3.504h-22.943v53.87a3.927 3.927 0 0 1-3.946 3.941h-10.083a3.927 3.927 0 0 1-3.946-3.941v-53.87h-13.006c-1.9 0-3.653-1.606-3.653-3.504v-8.175c0-1.898 1.754-3.504 3.653-3.504h13.006v-5.11c0-7.3 2.63-13.43 7.745-18.249C358.52 77.482 365.095 75 373.133 75c7.014 0 12.86 1.606 17.39 4.818zm82.265-35.39v13.194l11.493-3.941c1.2-.171 1.887-.343 2.23-.343 1.2 0 2.058 1.028 2.744 2.913l2.059 5.827c0 .514.686 2.056.686 2.742 0 1.37-.858 2.399-2.401 2.913l-12.351 4.455 7.89 10.282c.344.686.515 1.371.515 2.057 0 1.2-.686 2.227-2.058 3.084l-5.66 4.284c-.515.686-1.373 1.029-2.23 1.029-1.202 0-2.06-.515-2.917-1.543l-7.719-10.11-7.72 10.282c-.514.856-1.2 1.37-2.4 1.37-1.03 0-1.887-.342-2.745-1.199l-6.175-4.284c-1.03-.857-1.544-1.885-1.544-2.913 0-.686.171-1.371.514-2.057l7.548-10.282-12.179-4.112c-1.544-.514-2.23-1.714-2.23-3.256 0-.857.172-1.714.515-2.742l1.886-5.827c.687-1.885 1.716-2.913 3.088-2.913.172 0 .858.172 2.23.343l11.493 3.941V44.427c0-1.885 1.887-3.427 4.117-3.427h7.204c2.23 0 4.117 1.542 4.117 3.427z"/></svg>